<svg xmlns="http://www.w3.org/2000/svg" version="1.1" xmlns:xlink="http://www.w3.org/1999/xlink" xmlns:svgjs="http://svgjs.com/svgjs" width="1440" height="560" preserveAspectRatio="none" viewBox="0 0 1440 560"><g mask="url(&quot;#SvgjsMask1000&quot;)" fill="none"><rect width="1440" height="560" x="0" y="0" fill="rgba(40, 42, 54, 1)"></rect><path d="M165.77,455.681C182.54,455.541,195.75,443.067,204.03,428.482C212.186,414.115,215.495,396.759,207.392,382.362C199.154,367.725,182.566,360.63,165.77,360.507C148.734,360.382,131.557,366.968,123.077,381.744C114.629,396.463,117.899,414.435,126.385,429.132C134.87,443.827,148.802,455.823,165.77,455.681" fill="rgba(68, 71, 90, 0.56)" class="triangle-float1"></path><path d="M1249.4156029707124 319.14676138402416L1118.3803078013025 339.9007132721916 1139.13425968947 470.9360084416015 1270.1695548588798 450.1820565534341z" fill="rgba(68, 71, 90, 0.56)" class="triangle-float2"></path><path d="M741.238,467.746C770.526,468.865,803.957,466.226,818.772,440.937C833.683,415.484,819.196,385.226,804.598,359.592C789.787,333.585,771.161,304.199,741.238,304.789C711.835,305.368,695.629,335.915,682.061,362.007C669.882,385.428,660.442,412.342,673.334,435.378C686.459,458.83,714.383,466.72,741.238,467.746" fill="rgba(68, 71, 90, 0.56)" class="triangle-float3"></path><path d="M1072.16 380.34 a94.56 94.56 0 1 0 189.12 0 a94.56 94.56 0 1 0 -189.12 0z" fill="rgba(68, 71, 90, 0.56)" class="triangle-float1"></path><path d="M891.39 137.67 a99.41 99.41 0 1 0 198.82 0 a99.41 99.41 0 1 0 -198.82 0z" fill="rgba(68, 71, 90, 0.56)" class="triangle-float3"></path><path d="M793.678,402.71C822.555,402.045,852.126,394.576,867.737,370.273C884.561,344.083,885.483,310.448,870.456,283.188C854.906,254.98,825.788,233.39,793.678,235.927C764.407,238.239,750.146,268.478,735.383,293.859C720.489,319.465,699.483,347.711,713.468,373.825C727.847,400.675,763.228,403.411,793.678,402.71" fill="rgba(68, 71, 90, 0.56)" class="triangle-float2"></path><path d="M135.96 191.16 a181.54 181.54 0 1 0 363.08 0 a181.54 181.54 0 1 0 -363.08 0z" fill="rgba(68, 71, 90, 0.56)" class="triangle-float3"></path><path d="M486.6704880505397 352.6083949644862L559.274099105336 420.31235758115474 626.9780617220044 347.7087465263584 554.3744506672082 280.0047839096899z" fill="rgba(68, 71, 90, 0.56)" class="triangle-float3"></path><path d="M275.99036406189083-62.923409773765925L225.85901572469695 20.50916468639261 309.29159018485547 70.64051302358648 359.4229385220494-12.792061436572048z" fill="rgba(68, 71, 90, 0.56)" class="triangle-float2"></path><path d="M336.23 194.33 a104.33 104.33 0 1 0 208.66 0 a104.33 104.33 0 1 0 -208.66 0z" fill="rgba(68, 71, 90, 0.56)" class="triangle-float3"></path><path d="M571.0601324867434 111.5574666445018L671.9421872774743 184.9995646363226 685.2357483317629 76.73219814876477z" fill="rgba(68, 71, 90, 0.56)" class="triangle-float2"></path><path d="M572.63 353.37 a138.04 138.04 0 1 0 276.08 0 a138.04 138.04 0 1 0 -276.08 0z" fill="rgba(68, 71, 90, 0.56)" class="triangle-float3"></path><path d="M109.679,312.875C140.211,312.934,174.371,313.017,191.323,287.623C209.688,260.113,206.189,222.917,188.31,195.088C171.725,169.273,140.363,160.373,109.679,160.541C79.351,160.707,48.867,170.392,32.523,195.939C14.916,223.462,10.588,260.036,28.582,287.307C45.313,312.664,79.3,312.816,109.679,312.875" fill="rgba(68, 71, 90, 0.56)" class="triangle-float3"></path><path d="M876.4596765656389 74.77370502090514L910.1759919017238 138.1848715874425 988.4345840834874 55.904815300046415z" fill="rgba(68, 71, 90, 0.56)" class="triangle-float3"></path><path d="M705.061,354.598C741.21,355.4,774.784,338.211,795.038,308.258C818.344,273.791,833.833,229.987,814.084,193.366C793.604,155.389,748.207,141.099,705.061,141.412C662.537,141.72,618.095,157.061,598.74,194.926C580.547,230.517,599.586,271.146,621.74,304.416C641,333.34,670.32,353.828,705.061,354.598" fill="rgba(68, 71, 90, 0.56)" class="triangle-float1"></path><path d="M433.495,384.17C462.204,383.85,491.168,375.393,506.846,351.341C523.989,325.042,526.734,291.383,512.071,263.625C496.426,234.009,466.989,212.482,433.495,212.486C400.007,212.49,370.923,234.21,354.953,263.645C339.723,291.717,339.818,326.251,357.255,353.008C373.32,377.66,404.072,384.498,433.495,384.17" fill="rgba(68, 71, 90, 0.56)" class="triangle-float3"></path><path d="M413.89 458.25 a158.3 158.3 0 1 0 316.6 0 a158.3 158.3 0 1 0 -316.6 0z" fill="rgba(68, 71, 90, 0.56)" class="triangle-float3"></path><path d="M419.82750676012984 457.3440019471859L527.4651461298905 550.9119743411645 621.0331185238691 443.2743349714039 513.3954791541084 349.7063625774253z" fill="rgba(68, 71, 90, 0.56)" class="triangle-float3"></path><path d="M64.31 128.11 a162.63 162.63 0 1 0 325.26 0 a162.63 162.63 0 1 0 -325.26 0z" fill="rgba(68, 71, 90, 0.56)" class="triangle-float2"></path><path d="M1095.9770628059312 312.060707129517L1257.862525164831 334.81222513561937 1118.7285808120334 150.17524477061727z" fill="rgba(68, 71, 90, 0.56)" class="triangle-float3"></path></g><defs><mask id="SvgjsMask1000"><rect width="1440" height="560" fill="#ffffff"></rect></mask><style>
            @keyframes float1 {
                0%{transform: translate(0, 0)}
                50%{transform: translate(-10px, 0)}
                100%{transform: translate(0, 0)}
            }

            .triangle-float1 {
                animation: float1 5s infinite;
            }

            @keyframes float2 {
                0%{transform: translate(0, 0)}
                50%{transform: translate(-5px, -5px)}
                100%{transform: translate(0, 0)}
            }

            .triangle-float2 {
                animation: float2 4s infinite;
            }

            @keyframes float3 {
                0%{transform: translate(0, 0)}
                50%{transform: translate(0, -10px)}
                100%{transform: translate(0, 0)}
            }

            .triangle-float3 {
                animation: float3 6s infinite;
            }
        </style></defs></svg>